<?xml version="1.0" encoding="UTF-8"?><svg id="Layer_1" xmlns="http://www.w3.org/2000/svg" viewBox="0 0 1024 1024"><rect x="62.11" y="62.11" width="900" height="900" rx="179.01" ry="179.01"/><path d="M636.44,326.11c19.38,2.37,32.79,12.83,40.68,21.3,11.73,12.6,19.14,29.29,20.98,47.24v104.57l-108.88,115.24-7.12,7.53v-135.47l-120.88,127.94-7.12,7.53v-135.47l-120.88,127.94-7.12,7.53v-227.04c3.95-36.11,29.55-64.53,61.8-68.84h248.54M640.11,256.11h-256c-67.52,6.21-121.25,62.48-127.85,133.87l-.15,1.6v355.32c0,12.76,9.86,21.21,20.14,21.21,4.91,0,9.92-1.93,14-6.24l93.86-99.34v84.37c0,12.76,9.86,21.21,20.14,21.21,4.91,0,9.92-1.93,14-6.24l93.86-99.34v84.37c0,12.76,9.86,21.21,20.14,21.21,4.91,0,9.92-1.93,14-6.24l93.86-99.34v84.37c0,12.76,9.86,21.21,20.14,21.21,4.91,0,9.92-1.93,14-6.24l79.21-83.84c9.38-9.92,14.64-23.38,14.64-37.42v-249.03c-5.46-71.46-58.57-128.47-126-135.27l-2-.2h0Z" style="fill:#fff;"/></svg>