<?xml version="1.0" encoding="UTF-8"?><svg id="Layer_1" xmlns="http://www.w3.org/2000/svg" viewBox="0 0 1024 1024"><rect x="62" y="62" width="900" height="900" rx="179.01" ry="179.01"/><path d="M642,256.2l-2-.2h-256c-67.52,6.21-121.25,62.48-127.85,133.87l-.15,1.6v355.32c0,18.86,21.54,28.3,34.14,14.97l93.86-99.34v84.37c0,18.86,21.54,28.3,34.14,14.97l93.86-99.34v84.37c0,18.86,21.54,28.3,34.14,14.97l93.86-99.34v84.37c0,18.86,21.54,28.3,34.14,14.97l79.21-83.84c9.38-9.92,14.64-23.38,14.64-37.42v-249.03h0c-5.46-71.46-58.57-128.47-126-135.27ZM396,564c-53.02,0-96-42.98-96-96s42.98-96,96-96,96,42.98,96,96-42.98,96-96,96ZM628,564c-53.02,0-96-42.98-96-96s42.98-96,96-96,96,42.98,96,96-42.98,96-96,96Z" style="fill:#fff;"/></svg>