<?xml version="1.0" encoding="UTF-8"?><svg id="Layer_1" xmlns="http://www.w3.org/2000/svg" viewBox="0 0 1024 1024"><rect width="1024" height="1024"/><path d="M692.05,174.02l-2.77-.26h-354.56c-93.51,8.13-167.94,81.76-177.07,175.18l-.21,2.1v464.97c0,24.68,29.84,37.04,47.29,19.59l129.99-129.99v110.41c0,24.68,29.84,37.04,47.29,19.59l129.99-129.99v110.41c0,24.68,29.84,37.04,47.29,19.59l129.99-129.99v110.41c0,24.68,29.84,37.04,47.29,19.59l109.71-109.71c12.99-12.99,20.28-30.6,20.28-48.97v-325.87h0c-7.57-93.51-81.12-168.11-174.51-177.02ZM334.72,509.17c-43.67,0-79.07-35.4-79.07-79.07s35.4-79.07,79.07-79.07,79.07,35.4,79.07,79.07-35.4,79.07-79.07,79.07ZM609.19,525.7c-26.55,26.55-61.82,41.17-99.32,41.17s-72.77-14.62-99.32-41.17c-6.6-6.6-6.6-17.29,0-23.89,6.6-6.6,17.29-6.6,23.89,0,20.17,20.17,46.95,31.27,75.43,31.27s55.26-11.11,75.43-31.27c6.6-6.6,17.29-6.6,23.89,0,6.6,6.6,6.6,17.29,0,23.89ZM689.28,509.17c-43.67,0-79.07-35.4-79.07-79.07s35.4-79.07,79.07-79.07,79.07,35.4,79.07,79.07-35.4,79.07-79.07,79.07Z" style="fill:#fff;"/></svg>